<?xml version="1.0" encoding="iso-8859-1"?>
<!-- Generator: Adobe Illustrator 19.0.0, SVG Export Plug-In . SVG Version: 6.00 Build 0)  -->
<svg version="1.1" id="Layer_1" xmlns="http://www.w3.org/2000/svg" xmlns:xlink="http://www.w3.org/1999/xlink" x="0px" y="0px"
	 viewBox="0 0 512 512" style="enable-background:new 0 0 512 512;" xml:space="preserve">
<circle style="fill:#324A5E;" cx="256" cy="256" r="256"/>
<path style="fill:#2B3B4E;" d="M507.026,306.402L349.163,148.539L219.798,289.33l-61.161,70.332l147.43,147.43
	C407.176,487.041,486.848,407.462,507.026,306.402z"/>
<circle style="fill:#FFD15D;" cx="256" cy="256" r="142.222"/>
<path style="fill:#F9B54C;" d="M156.022,357.128c25.69,25.4,60.997,41.094,99.978,41.094c78.546,0,142.222-63.676,142.222-142.222
	c0-38.981-15.694-74.288-41.094-99.978L156.022,357.128z"/>
<g>
	<circle style="fill:#FFFFFF;" cx="198.37" cy="313.63" r="17.067"/>
	<path style="fill:#FFFFFF;" d="M198.363,251.059c34.561,0,62.578,28.017,62.578,62.578h-22.756
		c0-21.994-17.829-39.822-39.822-39.822V251.059z"/>
	<path style="fill:#FFFFFF;" d="M306.452,313.637c0-59.695-48.393-108.089-108.089-108.089v22.756
		c47.128,0,85.333,38.205,85.333,85.333H306.452z"/>
	<path style="fill:#FFFFFF;" d="M351.965,313.637c0-84.832-68.768-153.6-153.6-153.6v22.756
		c72.263,0,130.844,58.582,130.844,130.844H351.965z"/>
</g>
<g>
	<path style="fill:#F4E3C3;" d="M186.899,326.251c3.031,2.757,7.046,4.451,11.466,4.451c9.426,0,17.067-7.64,17.067-17.067
		c0-4.42-1.695-8.435-4.451-11.466L186.899,326.251z"/>
	<path style="fill:#F4E3C3;" d="M227.083,286.067c6.872,7.156,11.102,16.867,11.102,27.57h22.756
		c0-16.987-6.778-32.385-17.767-43.661L227.083,286.067z"/>
	<path style="fill:#F4E3C3;" d="M259.265,253.885c15.105,15.394,24.433,36.48,24.433,59.751h22.756
		c0-29.555-11.874-56.329-31.098-75.842L259.265,253.885z"/>
	<path style="fill:#F4E3C3;" d="M291.445,221.703c23.342,23.631,37.762,56.092,37.762,91.932h22.756
		c0-42.124-16.962-80.281-44.42-108.03L291.445,221.703z"/>
</g>
<g>
</g>
<g>
</g>
<g>
</g>
<g>
</g>
<g>
</g>
<g>
</g>
<g>
</g>
<g>
</g>
<g>
</g>
<g>
</g>
<g>
</g>
<g>
</g>
<g>
</g>
<g>
</g>
<g>
</g>
</svg>
