<?xml version="1.0" encoding="UTF-8" standalone="no"?>
<svg
   xmlns:dc="http://purl.org/dc/elements/1.1/"
   xmlns:cc="http://creativecommons.org/ns#"
   xmlns:rdf="http://www.w3.org/1999/02/22-rdf-syntax-ns#"
   xmlns:svg="http://www.w3.org/2000/svg"
   xmlns="http://www.w3.org/2000/svg"
   xmlns:sodipodi="http://sodipodi.sourceforge.net/DTD/sodipodi-0.dtd"
   xmlns:inkscape="http://www.inkscape.org/namespaces/inkscape"
   version="1.1"
   id="Layer_1"
   x="0px"
   y="0px"
   viewBox="0 0 512 512"
   style="enable-background:new 0 0 512 512;"
   xml:space="preserve"
   sodipodi:docname="logo.svg"
   inkscape:version="1.0.1 (3bc2e813f5, 2020-09-07)"><metadata
   id="metadata51"><rdf:RDF><cc:Work
       rdf:about=""><dc:format>image/svg+xml</dc:format><dc:type
         rdf:resource="http://purl.org/dc/dcmitype/StillImage" /></cc:Work></rdf:RDF></metadata><defs
   id="defs49">
	

		
	
			
			
			
			
		</defs><sodipodi:namedview
   pagecolor="#ffffff"
   bordercolor="#666666"
   borderopacity="1"
   objecttolerance="10"
   gridtolerance="10"
   guidetolerance="10"
   inkscape:pageopacity="0"
   inkscape:pageshadow="2"
   inkscape:window-width="2000"
   inkscape:window-height="1018"
   id="namedview47"
   showgrid="false"
   inkscape:zoom="1.6386719"
   inkscape:cx="256"
   inkscape:cy="256"
   inkscape:window-x="69"
   inkscape:window-y="27"
   inkscape:window-maximized="0"
   inkscape:current-layer="Layer_1" />
<path
   style="fill:#ffffff"
   d="M 508.059,174.525 C 379.163,11.78 133.061,11.498 3.941,174.525 -2.312,182.419 -0.98,193.889 6.915,200.141 14.81,206.393 26.278,205.062 32.531,197.167 146.842,52.838 364.984,52.617 479.471,197.167 485.727,205.068 497.196,206.389 505.087,200.141 512.981,193.887 514.312,182.419 508.059,174.525 Z"
   id="path2" /><path
   style="fill:#ffffff"
   d="M 87.372,240.465 C 81.117,248.358 82.445,259.827 90.338,266.081 98.234,272.338 109.701,271.006 115.954,263.115 187.621,172.676 324.245,172.51 396.044,263.115 402.3,271.008 413.768,272.336 421.66,266.081 429.553,259.826 430.882,248.358 424.626,240.465 338.355,131.595 173.775,131.429 87.372,240.465 Z"
   id="path4" /><path
   style="fill:#ffffff"
   d="M 170.757,306.4 C 164.507,314.297 165.841,325.764 173.738,332.015 181.635,338.265 193.103,336.931 199.353,329.034 228.278,292.488 283.671,292.427 312.645,329.034 318.896,336.931 330.362,338.266 338.26,332.015 346.157,325.764 347.49,314.297 341.241,306.4 297.724,251.418 214.345,251.33 170.757,306.4 Z"
   id="path6" /><circle
   style="fill:#ffffff"
   cx="256.00299"
   cy="413.69501"
   r="45.945"
   id="circle8" />
<g
   id="g16">
</g>
<g
   id="g18">
</g>
<g
   id="g20">
</g>
<g
   id="g22">
</g>
<g
   id="g24">
</g>
<g
   id="g26">
</g>
<g
   id="g28">
</g>
<g
   id="g30">
</g>
<g
   id="g32">
</g>
<g
   id="g34">
</g>
<g
   id="g36">
</g>
<g
   id="g38">
</g>
<g
   id="g40">
</g>
<g
   id="g42">
</g>
<g
   id="g44">
</g>
</svg>
